<?xml version="1.0" encoding="UTF-8"?><svg xmlns="http://www.w3.org/2000/svg" xmlns:xlink="http://www.w3.org/1999/xlink" version="1.1">
<title>A Twitterbird</title>
<desc>made with Inkscape by Andreas Fritsch, http://www.batik-gbr.de</desc>
 <defs>
 <radialGradient id="rGstrokeenvelope" gradientUnits="userSpaceOnUse" cy="200" cx="330" gradientTransform="matrix(1,0,0,0.6655,0,67.96)" r="110">
 <stop stop-color="#000080" offset="0"/>
 <stop stop-color="#e4e4ff" offset="1"/>
 </radialGradient>
 <linearGradient id="linearGradient3948" y2="380" gradientUnits="userSpaceOnUse" x2="190" gradientTransform="translate(-1.01,1.515)" y1="380" x1="34">
 <stop stop-color="#fafaff" offset="0"/>
 <stop stop-color="#fcfcff" offset="1"/>
 </linearGradient>
 <filter id="filter3954">
 <feGaussianBlur id="feGaussianBlur17" stdDeviation="1.197"/>
 </filter>
 <radialGradient id="radialGradient3972" gradientUnits="userSpaceOnUse" cy="310" cx="200" gradientTransform="matrix(1,0,0,0.49,0.5051,158.6)" r="88">
 <stop stop-color="#00F" offset="0"/>
 <stop stop-color="#f7f7ff" offset="1"/>
 </radialGradient>
 <linearGradient id="linearGradient3980" y2="310" gradientUnits="userSpaceOnUse" x2="290" gradientTransform="translate(0.5051,-1.515)" y1="310" x1="110">
 <stop stop-color="#f4f4ff" offset="0"/>
 <stop stop-color="#f7f7ff" offset="1"/>
 </linearGradient>
 <radialGradient id="radialGradient3988" gradientUnits="userSpaceOnUse" cy="380" cx="110" gradientTransform="matrix(1,0,0,0.5822,0,159.5)" r="80">
 <stop stop-color="#000080" offset="0"/>
 <stop stop-color="#000080" stop-opacity="0" offset="1"/>
 </radialGradient>
 <radialGradient id="radialGradient4082" gradientUnits="userSpaceOnUse" cy="450" cx="360" gradientTransform="matrix(1.328,-0.1818,0,0.5182,-124.7,234.5)" r="260">
 <stop stop-color="#5b5bff" offset="0"/>
 <stop stop-color="#0000c5" offset="1"/>
 </radialGradient>
 <filter id="fblur1">
 <feGaussianBlur id="feGaussianBlur38" stdDeviation="1"/>
 </filter>
 <filter id="fblur3">
 <feGaussianBlur stdDeviation="3"/>
 </filter>
<filter id="fsprings" color-interpolation-filters="sRGB">
	<feTurbulence  numOctaves="5" type="fractalNoise" baseFrequency="0.04" result="result7" />
	<feColorMatrix  type="luminanceToAlpha" values="0" result="result8" />
	<feColorMatrix type="matrix" values="1 0 0 0 0 0 1 0 0 0 0 0 1 0 0 0 0 0 20 -12 " result="result6" />
	<feGaussianBlur in="result6" stdDeviation="2" result="result5" />
	<feColorMatrix result="result0" type="matrix" values="1 0 0 0 0 0 1 0 0 0 0 0 1 0 0 0 0 0 10 -0.1 " in="result5" />
	<feComposite in2="SourceGraphic" k2="1" k1="0.8" result="result3" in="result0"  operator="arithmetic" />
	<feComposite operator="xor" in2="result8" result="result9" />
	<feBlend result="result9" in2="SourceGraphic" mode="normal" />
	<feComposite  operator="atop" result="result2" in2="SourceGraphic" in="result9" />
</filter>
 <radialGradient id="rGwing" gradientUnits="userSpaceOnUse" cy="240" cx="480" gradientTransform="matrix(1.294,-0.2092,0.1129,0.7044,-183.8,278.6)" r="99">
 <stop stop-color="#5050ff" offset="0"/>
 <stop stop-color="#000084" offset="1"/>
 </radialGradient>
 <filter id="fblur20" filterUnits="userSpaceOnUse">
 <feGaussianBlur stdDeviation="20"/>
 </filter>
 <radialGradient id="rGhighlight">
 <stop stop-color="#FFF" offset="0"/>
 <stop stop-color="#FFF" stop-opacity="0.7" offset="1"/>
 </radialGradient>
 <radialGradient id="rGeyebg" gradientUnits="userSpaceOnUse" cy="210" cx="310" gradientTransform="matrix(0.9486,0.3164,-0.3794,1.137,75.9,-117.9)" r="31">
 <stop stop-color="#FFF" offset="0"/>
 <stop stop-color="#fdfdfd" offset="0.76"/>
 <stop stop-color="#cecece" offset="1"/>
 </radialGradient>
 <radialGradient id="rGhead" gradientUnits="userSpaceOnUse" cy="240" cx="240" gradientTransform="matrix(1.405,-0.2995,0.276,1.295,-153.1,3.008)" r="150">
 <stop stop-color="#7373ff" offset="0"/>
 <stop stop-color="#22F" offset="0.53"/>
 <stop stop-color="#000058" offset="1"/>
 </radialGradient>
 <radialGradient id="rGbeaktop" gradientUnits="userSpaceOnUse" cy="280" cx="220" gradientTransform="matrix(-0.2135,-0.2307,0.8952,-0.8284,-3.113,586.2)" r="63">
 <stop stop-color="#ffd275" offset="0"/>
 <stop stop-color="#ffa800" offset="1"/>
 </radialGradient>
 <radialGradient id="rGbeakbottom" gradientUnits="userSpaceOnUse" cy="370" cx="200" gradientTransform="matrix(0.9236,-0.7039,0.1713,0.2245,-40.11,387.2)" r="68">
 <stop stop-color="#ff7300" offset="0"/>
 <stop stop-color="#ffa800" offset="1"/>
 </radialGradient>
 <radialGradient id="rGiris" gradientUnits="userSpaceOnUse" cy="220" cx="380" gradientTransform="matrix(1.305,0.5795,-0.6973,1.449,-52.92,-315.3)" r="13">
 <stop stop-color="#00007a" offset="0"/>
 <stop stop-color="#00003a" offset="1"/>
 </radialGradient>
 </defs>
 <use id="footR" opacity="0.7" filter="url(#fblur1)" xlink:href="#gfootL" transform="matrix(0.935,0.152,-0.1508,0.9428,28.03,-53.63)"/>
 <g id="gfootL" transform="matrix(0.8433,0,0,0.954,85.45,22.03)">
 <path id="footbg" d="m480,480c-44,18-100,23-150,12-30,5-49,23-48,31,0.8,5.3,34-10,52-10-20,10-51,25-48,31,2.8,7.3,25-3,54-14,2.6-1.1,60-22,10,4.4-4.6,5.3-4.6,20-4.6,20,0.9,2.4,30-2.6,55-23,14-7.9,26-14,33-21,10,3.4,29-8.2,47-5.5,31,4.6,54,12,54,4.1,0-7.8-28-27-59-27z" fill="#ff7c10"/>
 <path id="footstripes" opacity="0.5" d="m500,490c-1.7-0.1-4.7,1-11,5l13-3.1s0.3-1.9-1.8-1.9zm9.8,5.2c-1.6,0-4.6,1-11,5l12-3.1s0.4-1.8-1.7-1.9zm6.8,4.7c-1.6,0-4.6,1-11,5l12-3.1s0.4-1.8-1.7-1.9zm-200,1.7c-2.1,0.1-1.7,1.9-1.7,1.9l13,3.1c-5.9-4-8.9-5-11-5zm-9.9,6c-2,0.1-1.7,2-1.7,2l13,3.1c-5.8-4-8.9-5.1-11-5.1zm29,8.1c-2,0.1-1.7,2-1.7,2l13,3.1c-5.8-4-8.9-5.1-11-5.1zm43,2.8c-2.1,0-1.7,1.9-1.7,1.9l12,3.1c-5.8-4-8.8-5.1-11-5zm-53,2.4c-2.1,0.1-1.7,2-1.7,2l12,3.1c-5.8-4-8.9-5.1-11-5.1zm46,3.6c-1.7,0.3-1.3,2-1.3,2l12,3c-5.8-4-8.8-5.1-11-5h-8zm-56,3.3c-2.1,0-1.7,2-1.7,2l13,3.1c-5.9-4-8.9-5.1-11-5.1zm48,0.1c-1.7,0.3-1.3,2-1.3,2l13,3.1c-5.9-4-8.9-5.2-11-5.1h-0.4z" stroke="#cc5000" stroke-linecap="butt" stroke-width="0.8745px" fill="#e15b00"/>
 <path id="foothighlight" opacity="0.5" d="m510,490c-2.6,0-4.2,1-4.2,2.9,0,3.7,6.5,9.7,14,13,7.9,3.6,14,3.5,14-0.3,0-3.7-6.5-9.8-14-13-4-1.8-7.6-2.7-10-2.6zm-140,2.3c-6,0-23,3.9-42,9.9-24,7.5-43,15-42,18,0.7,2.4,21-1.8,45-9.3,24-7.4,43-15,42-18-0.2-0.4-1-0.6-2.4-0.6zm65,11h-0.5c-5,0.4-23,8.5-43,20-23,13-41,25-40,27,1.2,2.1,21-6.6,45-20,23-13,41-25,40-27-0.2-0.2-0.4-0.3-0.8-0.3zm-60,10h-0.9c-6,0.5-22,5.6-41,13-23,9.2-42,19-41,21,0.9,2.3,20-3.4,44-13,23-9.3,42-19,41-21-0.1-0.3-0.6-0.5-1.5-0.5z" filter="url(#fblur3)" fill="#FFF"/>
 </g>
 <path id="body" filter="url(#fsprings)" d="m580,120c-0.4,0-0.8,0-1.2,0.2-5.3,2.2-3.6,19,3.3,40-20-17-39-25-47-18-10,8.9,39,32,25,64-16,53-100,48-140,40-99,57-27,78-190,97,57,250,340,170,400,0.4,23-37,23-85,5-130,14-21,66-32,58-39-6-5.4-31-4.9-56,2.2,9.6-25,12-46,6.5-48-6.2-2.5-20,16-30,42l-0.1,0.1c-1-3-2.2-6.1-3.5-9.2-9.6-24-22-42-29-42z" fill="url(#radialGradient4082)"/>
 <path id="wing" filter="url(#fsprings)" d="m500,300c-35,5-80-10-95-1.3,0,0-14,17-11,25,22,24,58,46,83,60,45,24,86,34,94,20,2.7-5,0-12-6.9-21,14-1.4,23-5.3,24-12,2-8.2-8.8-18-27-28,19-4.9,31-12,31-20,0-15-42-30-92-23z" fill="url(#rGwing)"/>
 <path id="head" fill="url(#rGhead)" filter="url(#fsprings)" d="m280,42c-0.7,0-1.2,0-1.8,0.22-8.4,2.7-8.5,26-0.7,54-10-6-20-13-30-18-30-12-60-15-60-6-3.2,7.8,13,22,38,34-9-3.7-20-7.1-33-9.4-32-6-58-3.3-60,6-1.5,8.3,17,19,44,26-2.2,0.7-4.4,1.4-6.7,2.2-30,11-52,27-49,36,2.8,7.7,23,7.4,48,0.3-0.8,1.2-1.7,2.5-2.5,3.9-39,61-18,140,46,170,64,35,150,13,190-48,39-61,18-140-46-170-10-5.5-21-9.6-32-12-1.1-5.4-2.7-11-4.5-17-9.2-29-23-50-32-50zm-53,66c1.4,0.6,2.7,1.2,4.1,1.8,2.4,0.9,4.7,1.8,7.1,2.6-0.8,0.3-1.5,0.5-2.3,0.8-2.4-1.8-5.4-3.5-8.9-5.2z"/>
 <path id="beakbottom" d="m270,270c-50,30-80,80-130,90,50-10,90-30,130-50,6.8-8,6.7-25-1.1-34z" fill="url(#rGbeakbottom)"/>
 <g id="genvelope" opacity="0.9">
 <path id="base" stroke="url(#rGstrokeenvelope)" fill="#FFF" transform="matrix(0.8402,0.5422,-0.5939,0.8046,0,0)" d="m250,160,180-32c3.6-0.7,7.8,3.2,6.6,6.6-13,36-32,73-34,110-0.2,3.7-3.1,5.8-6.6,6.6-51,12-100,21-160,13-3.7-0.4-7.8-3.1-6.6-6.6,9.1-27,16-58,19-93,0.4-3.6,3-5.9,6.6-6.6z"/>
 <path id="envelopebottom" d="m34,340c4.6-0.5,130-2.5,130-2.5l28,84-2.5,2.5" filter="url(#filter3954)" stroke="url(#radialGradient3988)" stroke-width="1px" fill="url(#linearGradient3948)"/>
 <path id="envelopetop" stroke="url(#radialGradient3972)" stroke-width="1px" fill="url(#linearGradient3980)" d="m110,270,11,85,160-9.6,0,0"/>
 </g>
 <path id="beaktop" d="m270,280c-44,29-70,77-130,85,9.7-31,36-87,56-100,20-19,84-1.1,74,15z" fill="url(#rGbeaktop)"/>
 <g id="eyeL">
 <path id="eyebg" fill="url(#rGeyebg)" d="m320,230a30,37,18,1,1,-58,-19,30,37,18,0,1,58,19z"/>
 <path id="iris" fill="url(#rGiris)" d="m300,230a19,21,33,0,1,-34,-15,19,21,33,1,1,34,15z"/>
 <path id="pupill" stroke="#0000ad" stroke-width="0.6" fill="#000" d="m290,220a9,10,0,1,1,-18,0,9,10,0,1,1,18,0z"/>
 </g>
 <g id="eyeR">
 <use xlink:href="#eyebg" transform="matrix(0.8492,-0.3845,0.4075,0.8012,-121.1,147)"/>
 <use xlink:href="#iris" transform="matrix(0.8041,-0.4613,0.4613,0.8041,-121.2,167.4)"/>
 <use xlink:href="#pupill" transform="matrix(0.9262,0,0,0.9262,-53.83,9.38)"/>
 </g>
 <path id="eyehighlight" opacity="0.9" d="m380,210a14,17,0,1,1,-28,0,14,17,0,1,1,28,0z" transform="matrix(0.3934,0.6432,-0.6593,0.3838,291.2,-103.6)" filter="url(#fblur1)" fill="#FFF"/>
 <use id="use3845" xlink:href="#eyehighlight" transform="translate(-77.28,-8.081)"/>
 <path id="highlight" opacity="0.7" filter="url(#fblur20)" fill="url(#rGhighlight)" d="m300,64c-0.6,0-1.1,0-1.5,0.16-6.9,2.3-7,22-0.6,46-7-5.4-17-11-28-16-1.7-0.71-3.2-1.3-4.8-2,2.5,5.6,4.9,12,7.1,19,1.5,4.9,2.8,9.8,3.7,14,9,2.3,18,5.7,26,10,53,29,70,95,38,150-15,24-14,39-39,47,45,7.1,69-11,94-51,32-52,15-120-38-150-8.4-4.6-17-8.1-26-10-1-4.6-2.3-9.4-3.8-14-7.5-24-19-42-26-43zm290,67c-0.1,0-0.2,0-0.3,0.1-3,0.8-1.8,14,2.8,29s11,27,14,26c3-0.8,1.8-14-2.8-29-4.5-15-10-26-14-26zm48,4.9c-3.2,0.3-9.2,11-14,25-5.1,15-6.8,28-3.8,29,2.9,1.1,9.4-10,14-25,5.1-15,6.7-28,3.8-29-0.2,0-0.4-0.1-0.6,0zm-83,11c-0.2,0-0.4,0.1-0.6,0.2-2.7,1.6,2.1,14,11,27,4.7,7.3,9.6,13,14,17,33,59,20,140-37,200-63,64-160,76-220,29,4.2,5.9,9.2,12,14,17,59,58,160,49,230-19,65-67,73-170,19-220-0.2-4.4-4.6-14-11-25-8.1-12-17-21-20-21zm120,25c-5.6-0.2-16,2.9-28,8.3-15,7.1-25,16-23,19,2.3,3.2,16,0.1,31-7,15-7.2,25-16,23-19-0.6-0.8-1.9-1.2-3.8-1.2zm-410,110c-11-0.1-29,7.8-43,20-17,14-24,29-14,33,9.4,3.8,31-4.7,48-19s24-29,14-33c-1.4-0.6-3.2-0.8-5.2-0.8zm590,330a89,19,0,0,1,-180,0,89,19,0,1,1,180,0z"/>
 <use id="wingtop" opacity="0.3" xlink:href="#wing" transform="translate(2,-1)"/>
 <path id="highlightwing" opacity="0.7" filter="url(#fblur20)" fill="url(#rGhighlight)" d="m590,330a89,19,0,0,1,-180,0,89,19,0,1,1,180,0z"/>
</svg>
